;Coverted using MIDI2ASM
;Code by TriteHexagon
;Version 5.2.0 (16-Nov-2022)
;Visit github.com/TriteHexagon/Midi2ASM-Converter for up-to-date versions.

; ============================================================================================================

Music_RM95Town3:
	channel_count 3
	channel 1, Music_RM95Town3_Ch1
	channel 2, Music_RM95Town3_Ch2
	channel 3, Music_RM95Town3_Ch3

Music_RM95Town3_Ch1:
	volume 7, 7
	duty_cycle 2
	note_type 12, 10, 7
	tempo 234
;Bar 1
	rest 4
	octave 4
	volume_envelope 12, 7
	note G_, 4
	note E_, 2
	note D_, 2
	note C_, 2
	note E_, 2
;Bar 2
	note D_, 6
	octave 3
	note A_, 1
	note A_, 9
;Bar 3
	rest 4
	octave 4
	note G_, 4
	note E_, 2
	note D_, 2
	note C_, 2
	note G_, 2
;Bar 4
	note F_, 8
	note F_, 2
	note E_, 2
	note D_, 2
	note F_, 2
;Bar 5
	note E_, 8
	note E_, 2
	note F_, 2
	note G_, 2
	octave 5
	note C_, 8
;Bar 6
	rest 2
	note C_, 2
	note D_, 2
	note E_, 2
	note C_, 2
;Bar 7
	note E_, 4
	note F_, 2
	note E_, 2
	rest 2
	note D_, 2
	rest 2
	note C_, 10
;Bar 8
	note D_, 8
;Bar 9
	rest 4
	octave 4
	note G_, 4
	note E_, 2
	note D_, 2
	note C_, 2
	note E_, 2
;Bar 10
	note D_, 6
	octave 3
	note A_, 1
	note A_, 9
;Bar 11
	rest 4
	octave 4
	note G_, 4
	note E_, 2
	note D_, 2
	note C_, 2
	note G_, 2
;Bar 12
	note F_, 8
	note F_, 2
	note E_, 2
	note D_, 2
	note F_, 2
;Bar 13
	note E_, 8
	note E_, 2
	note F_, 2
	note G_, 2
	octave 5
	note C_, 8
;Bar 14
	rest 2
	note C_, 2
	note D_, 2
	note E_, 2
	note C_, 2
;Bar 15
	note E_, 4
	note F_, 2
	note E_, 2
	rest 2
	note D_, 2
	rest 2
	note C_, 10
;Bar 16
	note D_, 8
;Bar 17
	note D#, 8
	note D#, 2
	note D_, 2
	note C_, 2
	note D#, 2
;Bar 18
	note D_, 8
	octave 4
	note A#, 4
	octave 5
	note C_, 4
;Bar 19
	note C#, 8
	note C#, 2
	note C_, 2
	octave 4
	note A#, 2
	octave 5
	note C#, 2
;Bar 20
	note C_, 16
;Bar 21
	note D#, 6
	note G_, 6
	note A#, 4
;Bar 22
	note A_, 6
	note F_, 6
	note D_, 4
;Bar 23
	note G#, 6
	note F_, 6
	note G#, 4
;Bar 24
	note G_, 8
	note E_, 8
;Bar 25
	note D#, 8
	note D#, 2
	note D_, 2
	note C_, 2
	note D#, 2
;Bar 26
	note D_, 8
	octave 4
	note A#, 4
	octave 5
	note C_, 4
;Bar 27
	note C#, 8
	note C#, 2
	note C_, 2
	octave 4
	note A#, 2
	octave 5
	note C#, 2
;Bar 28
	note C_, 16
;Bar 29
	note D#, 6
	note G_, 6
	note A#, 4
;Bar 30
	note A_, 6
	note F_, 6
	note D_, 4
;Bar 31
	note G#, 6
	note F_, 6
	note G#, 4
;Bar 32
	note G_, 8
	note E_, 8
	sound_ret

; ============================================================================================================

Music_RM95Town3_Ch2:
	duty_cycle 1
	note_type 12, 10, 7
;Bar 1
	octave 3
	volume_envelope 12, 7
	note B_, 4
	note B_, 4
	note B_, 4
	note B_, 4
;Bar 2
	octave 4
	note C_, 4
	note C_, 4
	note C_, 4
	note C_, 1
	octave 3
	note D_, 1
	note F_, 1
	note A_, 1
;Bar 3
	note B_, 4
	note B_, 4
	note B_, 4
	note B_, 4
;Bar 4
	octave 4
	note C_, 4
	note C_, 4
	note C_, 4
	note C_, 1
	octave 3
	note D_, 3
;Bar 5
	note B_, 4
	note B_, 4
	note B_, 4
	note B_, 4
;Bar 6
	octave 4
	note C_, 4
	note C_, 4
	note C_, 4
	note C_, 1
	octave 3
	note D_, 1
	note F_, 1
	note A_, 1
;Bar 7
	note B_, 4
	note B_, 4
	note B_, 4
	note B_, 4
;Bar 8
	octave 4
	note C_, 4
	note C_, 4
	note C_, 4
	note C_, 1
	octave 3
	note D_, 3
;Bar 9
	note B_, 4
	note B_, 4
	note B_, 4
	note B_, 4
;Bar 10
	octave 4
	note C_, 4
	note C_, 4
	note C_, 4
	note C_, 1
	octave 3
	note D_, 1
	note F_, 1
	note A_, 1
;Bar 11
	note B_, 4
	note B_, 4
	note B_, 4
	note B_, 4
;Bar 12
	octave 4
	note C_, 4
	note C_, 4
	note C_, 4
	note C_, 1
	octave 3
	note D_, 3
;Bar 13
	note B_, 4
	note B_, 4
	note B_, 4
	note B_, 4
;Bar 14
	octave 4
	note C_, 4
	note C_, 4
	note C_, 4
	note C_, 1
	octave 3
	note D_, 1
	note F_, 1
	note A_, 1
;Bar 15
	note B_, 4
	note B_, 4
	note B_, 4
	note B_, 4
;Bar 16
	octave 4
	note C_, 4
	note C_, 4
	note C_, 4
	note C_, 1
	octave 3
	note D_, 3
;Bar 17
	note D#, 4
	note D#, 4
	note D#, 4
	note D#, 4
;Bar 18
	note D_, 4
	note D_, 4
	note D_, 4
	note D_, 1
	note D_, 1
	note F_, 1
	note A_, 1
;Bar 19
	note C#, 4
	note C#, 4
	note C#, 4
	note C#, 4
;Bar 20
	note C_, 4
	note C_, 4
	note C_, 4
	note C_, 1
	note C_, 3
;Bar 21
	note D#, 4
	note D#, 4
	note D#, 4
	note D#, 4
;Bar 22
	note D_, 4
	note D_, 4
	note D_, 4
	note D_, 1
	note D_, 1
	note F_, 1
	note A_, 1
;Bar 23
	note C#, 4
	note C#, 4
	note C#, 4
	note C#, 4
;Bar 24
	note C_, 4
	note C_, 4
	note C_, 4
	note C_, 1
	note C_, 3
;Bar 25
	note D#, 4
	note D#, 4
	note D#, 4
	note D#, 4
;Bar 26
	note D_, 4
	note D_, 4
	note D_, 4
	note D_, 1
	note D_, 1
	note F_, 1
	note A_, 1
;Bar 27
	note C#, 4
	note C#, 4
	note C#, 4
	note C#, 4
;Bar 28
	note C_, 4
	note C_, 4
	note C_, 4
	note C_, 1
	note C_, 3
;Bar 29
	note D#, 4
	note D#, 4
	note D#, 4
	note D#, 4
;Bar 30
	note D_, 4
	note D_, 4
	note D_, 4
	note D_, 1
	note D_, 1
	note F_, 1
	note A_, 1
;Bar 31
	note C#, 4
	note C#, 4
	note C#, 4
	note C#, 4
;Bar 32
	note C_, 4
	note C_, 4
	note C_, 4
	note C_, 1
	note C_, 3
	sound_ret

; ============================================================================================================

Music_RM95Town3_Ch3:
	note_type 12, 1, 0
;Bar 1
	octave 3
	volume_envelope 1, 0
	note C_, 12
	octave 2
	note G_, 4
;Bar 2
	note A_, 8
	octave 3
	note D_, 4
	octave 2
	note A_, 4
;Bar 3
	octave 3
	note C_, 12
	octave 2
	note E_, 4
;Bar 4
	note F_, 8
	note G_, 8
;Bar 5
	octave 3
	note C_, 12
	octave 2
	note G_, 4
;Bar 6
	note A_, 8
	octave 3
	note D_, 4
	octave 2
	note A_, 4
;Bar 7
	octave 3
	note C_, 12
	octave 2
	note E_, 4
;Bar 8
	note F_, 8
	note G_, 8
;Bar 9
	octave 3
	note C_, 12
	octave 2
	note G_, 4
;Bar 10
	note A_, 8
	octave 3
	note D_, 4
	octave 2
	note A_, 4
;Bar 11
	octave 3
	note C_, 12
	octave 2
	note E_, 4
;Bar 12
	note F_, 8
	note G_, 8
;Bar 13
	octave 3
	note C_, 12
	octave 2
	note G_, 4
;Bar 14
	note A_, 8
	octave 3
	note D_, 4
	octave 2
	note A_, 4
;Bar 15
	octave 3
	note C_, 12
	octave 2
	note E_, 4
;Bar 16
	note F_, 8
	note G_, 8
;Bar 17
	note A#, 12
	octave 3
	note D#, 4
;Bar 18
	octave 2
	note A_, 8
	note F_, 4
	note G_, 4
;Bar 19
	note G#, 12
	note A#, 4
;Bar 20
	note G_, 8
	octave 3
	note C_, 8
;Bar 21
	octave 2
	note A#, 12
	octave 3
	note D#, 4
;Bar 22
	octave 2
	note A_, 8
	note F_, 4
	note G_, 4
;Bar 23
	note G#, 12
	note A#, 4
;Bar 24
	note G_, 8
	octave 3
	note C_, 8
;Bar 25
	octave 2
	note A#, 12
	octave 3
	note D#, 4
;Bar 26
	octave 2
	note A_, 8
	note F_, 4
	note G_, 4
;Bar 27
	note G#, 12
	note A#, 4
;Bar 28
	note G_, 8
	octave 3
	note C_, 8
;Bar 29
	octave 2
	note A#, 12
	octave 3
	note D#, 4
;Bar 30
	octave 2
	note A_, 8
	note F_, 4
	note G_, 4
;Bar 31
	note G#, 12
	note A#, 4
;Bar 32
	note G_, 8
	octave 3
	note C_, 8
	sound_ret

; ============================================================================================================

