;Coverted using MIDI2ASM
;Code by TriteHexagon
;Version 5.2.0 (16-Nov-2022)
;Visit github.com/TriteHexagon/Midi2ASM-Converter for up-to-date versions.

; ============================================================================================================

Music_RMVXDungeon01:
	channel_count 4
	channel 1, Music_RMVXDungeon01_Ch1
	channel 2, Music_RMVXDungeon01_Ch2
	channel 3, Music_RMVXDungeon01_Ch3
	channel 4, Music_RMVXDungeon01_Ch4

Music_RMVXDungeon01_Ch1:
	volume 7, 7
	duty_cycle 2
	note_type 12, 10, 7
	tempo 318
;Bar 1
	rest 2
	rest 16
	rest 16
	rest 16
	rest 16
	rest 6
;Bar 5
	octave 4
	volume_envelope 11, 7
	note D_, 2
	volume_envelope 9, 7
	note D_, 2
	volume_envelope 7, 7
	;note D_, 0 | WARNING: Rounded down to 0
	volume_envelope 11, 7
	note C_, 2
	volume_envelope 9, 7
	;note C_, 0 | WARNING: Rounded down to 0
	volume_envelope 5, 7
	note D_, 2
;Bar 6
	volume_envelope 7, 7
	;note C_, 0 | WARNING: Rounded down to 0
	volume_envelope 4, 7
	;note D_, 0 | WARNING: Rounded down to 0
	octave 3
	volume_envelope 11, 7
	note A_, 2
	volume_envelope 9, 7
	;note A_, 0 | WARNING: Rounded down to 0
	octave 4
	volume_envelope 5, 7
	note C_, 2
	octave 3
	volume_envelope 7, 7
	;note A_, 0 | WARNING: Rounded down to 0
	octave 4
	volume_envelope 4, 7
	;note C_, 0 | WARNING: Rounded down to 0
	octave 3
	volume_envelope 11, 7
	note B_, 2
	volume_envelope 9, 7
	;note B_, 0 | WARNING: Rounded down to 0
	volume_envelope 5, 7
	note A_, 2
	volume_envelope 7, 7
	;note B_, 0 | WARNING: Rounded down to 0
	volume_envelope 4, 7
	note A_, 2
	volume_envelope 5, 7
	note B_, 2
	volume_envelope 4, 7
	note B_, 8
;Bar 7
	rest 4
	octave 4
	volume_envelope 11, 7
	note F_, 2
	volume_envelope 9, 7
	;note F_, 0 | WARNING: Rounded down to 0
	rest 2
	volume_envelope 7, 7
	;note F_, 0 | WARNING: Rounded down to 0
	volume_envelope 11, 7
	note E_, 2
	volume_envelope 9, 7
	;note E_, 0 | WARNING: Rounded down to 0
	volume_envelope 5, 7
	note F_, 2
;Bar 8
	volume_envelope 7, 7
	;note E_, 0 | WARNING: Rounded down to 0
	volume_envelope 4, 7
	;note F_, 0 | WARNING: Rounded down to 0
	octave 3
	volume_envelope 11, 7
	note B_, 2
	volume_envelope 9, 7
	;note B_, 0 | WARNING: Rounded down to 0
	octave 4
	volume_envelope 5, 7
	note E_, 2
	octave 3
	volume_envelope 7, 7
	;note B_, 0 | WARNING: Rounded down to 0
	octave 4
	volume_envelope 4, 7
	;note E_, 0 | WARNING: Rounded down to 0
	volume_envelope 11, 7
	note C_, 2
	volume_envelope 9, 7
	;note C_, 0 | WARNING: Rounded down to 0
	octave 3
	volume_envelope 5, 7
	note B_, 2
	octave 4
	volume_envelope 7, 7
	;note C_, 0 | WARNING: Rounded down to 0
	octave 3
	volume_envelope 4, 7
	note B_, 2
	octave 4
	volume_envelope 5, 7
	note C_, 2
	volume_envelope 4, 7
	;note C_, 0 | WARNING: Rounded down to 0
	octave 3
	volume_envelope 11, 7
	note A_, 2
	volume_envelope 9, 7
	note A_, 2
;Bar 9
	volume_envelope 7, 7
	note A_, 2
	volume_envelope 5, 7
	note A_, 2
	volume_envelope 4, 7
	note A_, 4
	octave 4
	volume_envelope 11, 7
	note D_, 2
	volume_envelope 9, 7
	note D_, 2
	volume_envelope 7, 7
	;note D_, 0 | WARNING: Rounded down to 0
	volume_envelope 11, 7
	note C_, 2
	volume_envelope 9, 7
	;note C_, 0 | WARNING: Rounded down to 0
	volume_envelope 5, 7
	note D_, 2
;Bar 10
	volume_envelope 7, 7
	;note C_, 0 | WARNING: Rounded down to 0
	volume_envelope 4, 7
	;note D_, 0 | WARNING: Rounded down to 0
	octave 3
	volume_envelope 11, 7
	note A_, 2
	volume_envelope 9, 7
	;note A_, 0 | WARNING: Rounded down to 0
	octave 4
	volume_envelope 5, 7
	note C_, 2
	octave 3
	volume_envelope 7, 7
	;note A_, 0 | WARNING: Rounded down to 0
	octave 4
	volume_envelope 4, 7
	;note C_, 0 | WARNING: Rounded down to 0
	octave 3
	volume_envelope 11, 7
	note B_, 2
	volume_envelope 9, 7
	;note B_, 0 | WARNING: Rounded down to 0
	volume_envelope 5, 7
	note A_, 2
	volume_envelope 7, 7
	;note B_, 0 | WARNING: Rounded down to 0
	volume_envelope 4, 7
	note A_, 2
	volume_envelope 5, 7
	note B_, 2
	volume_envelope 4, 7
	note B_, 8
;Bar 11
	rest 4
	octave 4
	volume_envelope 11, 7
	note F_, 2
	volume_envelope 9, 7
	;note F_, 0 | WARNING: Rounded down to 0
	rest 2
	volume_envelope 7, 7
	;note F_, 0 | WARNING: Rounded down to 0
	volume_envelope 11, 7
	note E_, 2
	volume_envelope 9, 7
	;note E_, 0 | WARNING: Rounded down to 0
	volume_envelope 5, 7
	note F_, 2
;Bar 12
	volume_envelope 7, 7
	;note E_, 0 | WARNING: Rounded down to 0
	volume_envelope 4, 7
	;note F_, 0 | WARNING: Rounded down to 0
	octave 3
	volume_envelope 11, 7
	note B_, 2
	volume_envelope 9, 7
	;note B_, 0 | WARNING: Rounded down to 0
	octave 4
	volume_envelope 5, 7
	note E_, 2
	octave 3
	volume_envelope 7, 7
	;note B_, 0 | WARNING: Rounded down to 0
	octave 4
	volume_envelope 4, 7
	;note E_, 0 | WARNING: Rounded down to 0
	volume_envelope 11, 7
	note C_, 2
	volume_envelope 9, 7
	;note C_, 0 | WARNING: Rounded down to 0
	octave 3
	volume_envelope 5, 7
	note B_, 2
	octave 4
	volume_envelope 7, 7
	;note C_, 0 | WARNING: Rounded down to 0
	octave 3
	volume_envelope 4, 7
	note B_, 2
	octave 4
	volume_envelope 5, 7
	note C_, 2
	volume_envelope 4, 7
	;note C_, 0 | WARNING: Rounded down to 0
	volume_envelope 11, 7
	note D_, 2
	volume_envelope 9, 7
	note D_, 2
;Bar 13
	volume_envelope 7, 7
	;note D_, 0 | WARNING: Rounded down to 0
	volume_envelope 11, 7
	note E_, 2
	volume_envelope 9, 7
	;note E_, 0 | WARNING: Rounded down to 0
	volume_envelope 5, 7
	note D_, 2
	volume_envelope 7, 7
	;note E_, 0 | WARNING: Rounded down to 0
	volume_envelope 4, 7
	;note D_, 0 | WARNING: Rounded down to 0
	volume_envelope 11, 7
	note F_, 2
	volume_envelope 5, 7
	;note E_, 0 | WARNING: Rounded down to 0
	volume_envelope 9, 7
	note F_, 2
	volume_envelope 4, 7
	;note E_, 0 | WARNING: Rounded down to 0
	volume_envelope 7, 7
	note F_, 2
	volume_envelope 5, 7
	note F_, 2
	volume_envelope 4, 7
	note F_, 4
;Bar 14
	volume_envelope 11, 7
	note E_, 2
	volume_envelope 9, 7
	;note E_, 0 | WARNING: Rounded down to 0
	volume_envelope 11, 7
	note A_, 2
	volume_envelope 9, 7
	;note A_, 0 | WARNING: Rounded down to 0
	volume_envelope 7, 7
	;note E_, 0 | WARNING: Rounded down to 0
	volume_envelope 11, 7
	note C_, 2
	volume_envelope 9, 7
	;note C_, 0 | WARNING: Rounded down to 0
	volume_envelope 7, 7
	;note A_, 0 | WARNING: Rounded down to 0
	volume_envelope 5, 7
	note E_, 2
	volume_envelope 7, 7
	;note C_, 0 | WARNING: Rounded down to 0
	volume_envelope 5, 7
	;note A_, 0 | WARNING: Rounded down to 0
	volume_envelope 4, 7
	note E_, 2
	volume_envelope 5, 7
	;note C_, 0 | WARNING: Rounded down to 0
	volume_envelope 4, 7
	note A_, 2
	;note C_, 0 | WARNING: Rounded down to 0
	volume_envelope 11, 7
	note D_, 2
	volume_envelope 9, 7
	note D_, 2
;Bar 15
	volume_envelope 7, 7
	;note D_, 0 | WARNING: Rounded down to 0
	volume_envelope 11, 7
	note E_, 2
	volume_envelope 9, 7
	;note E_, 0 | WARNING: Rounded down to 0
	volume_envelope 5, 7
	note D_, 2
	volume_envelope 7, 7
	;note E_, 0 | WARNING: Rounded down to 0
	volume_envelope 4, 7
	;note D_, 0 | WARNING: Rounded down to 0
	volume_envelope 11, 7
	note F_, 2
	volume_envelope 9, 7
	;note F_, 0 | WARNING: Rounded down to 0
	volume_envelope 5, 7
	note E_, 2
	volume_envelope 7, 7
	;note F_, 0 | WARNING: Rounded down to 0
	volume_envelope 4, 7
	note E_, 2
	volume_envelope 5, 7
	note F_, 2
	volume_envelope 4, 7
	note F_, 4
;Bar 16
	volume_envelope 11, 7
	note E_, 2
	volume_envelope 9, 7
	;note E_, 0 | WARNING: Rounded down to 0
	volume_envelope 11, 7
	note D_, 2
	volume_envelope 9, 7
	;note D_, 0 | WARNING: Rounded down to 0
	volume_envelope 7, 7
	;note E_, 0 | WARNING: Rounded down to 0
	volume_envelope 11, 7
	note C_, 2
	volume_envelope 9, 7
	;note C_, 0 | WARNING: Rounded down to 0
	volume_envelope 7, 7
	;note D_, 0 | WARNING: Rounded down to 0
	volume_envelope 5, 7
	note E_, 2
	volume_envelope 7, 7
	;note C_, 0 | WARNING: Rounded down to 0
	volume_envelope 5, 7
	;note D_, 0 | WARNING: Rounded down to 0
	volume_envelope 4, 7
	note E_, 2
	volume_envelope 5, 7
	;note C_, 0 | WARNING: Rounded down to 0
	volume_envelope 4, 7
	note D_, 2
	;note C_, 0 | WARNING: Rounded down to 0
	octave 3
	volume_envelope 11, 7
	note B_, 2
	volume_envelope 9, 7
	note B_, 2
;Bar 17
	volume_envelope 7, 7
	;note B_, 0 | WARNING: Rounded down to 0
	volume_envelope 11, 7
	note A_, 2
	volume_envelope 9, 7
	;note A_, 0 | WARNING: Rounded down to 0
	volume_envelope 5, 7
	note B_, 2
	volume_envelope 7, 7
	;note A_, 0 | WARNING: Rounded down to 0
	volume_envelope 4, 7
	;note B_, 0 | WARNING: Rounded down to 0
	octave 4
	volume_envelope 11, 7
	note F_, 2
	octave 3
	volume_envelope 5, 7
	;note A_, 0 | WARNING: Rounded down to 0
	octave 4
	volume_envelope 9, 7
	note F_, 2
	octave 3
	volume_envelope 4, 7
	;note A_, 0 | WARNING: Rounded down to 0
	octave 4
	volume_envelope 7, 7
	note F_, 2
	volume_envelope 5, 7
	note F_, 2
	volume_envelope 4, 7
	note F_, 4
;Bar 18
	volume_envelope 11, 7
	note E_, 2
	volume_envelope 9, 7
	;note E_, 0 | WARNING: Rounded down to 0
	volume_envelope 11, 7
	note A_, 2
	volume_envelope 9, 7
	;note A_, 0 | WARNING: Rounded down to 0
	volume_envelope 7, 7
	;note E_, 0 | WARNING: Rounded down to 0
	volume_envelope 11, 7
	note C_, 2
	volume_envelope 9, 7
	;note C_, 0 | WARNING: Rounded down to 0
	volume_envelope 7, 7
	;note A_, 0 | WARNING: Rounded down to 0
	volume_envelope 5, 7
	note E_, 2
	volume_envelope 7, 7
	;note C_, 0 | WARNING: Rounded down to 0
	volume_envelope 5, 7
	;note A_, 0 | WARNING: Rounded down to 0
	volume_envelope 4, 7
	note E_, 2
	volume_envelope 5, 7
	;note C_, 0 | WARNING: Rounded down to 0
	volume_envelope 4, 7
	note A_, 2
	;note C_, 0 | WARNING: Rounded down to 0
	volume_envelope 11, 7
	note D_, 2
	volume_envelope 9, 7
	note D_, 2
;Bar 19
	volume_envelope 7, 7
	;note D_, 0 | WARNING: Rounded down to 0
	volume_envelope 11, 7
	note E_, 2
	volume_envelope 9, 7
	;note E_, 0 | WARNING: Rounded down to 0
	volume_envelope 5, 7
	note D_, 2
	volume_envelope 7, 7
	;note E_, 0 | WARNING: Rounded down to 0
	volume_envelope 4, 7
	;note D_, 0 | WARNING: Rounded down to 0
	volume_envelope 11, 7
	note F_, 2
	volume_envelope 9, 7
	;note F_, 0 | WARNING: Rounded down to 0
	volume_envelope 5, 7
	note E_, 2
	volume_envelope 7, 7
	;note F_, 0 | WARNING: Rounded down to 0
	volume_envelope 4, 7
	note E_, 2
	volume_envelope 5, 7
	note F_, 2
	volume_envelope 4, 7
	note F_, 4
;Bar 20
	volume_envelope 11, 7
	note E_, 2
	volume_envelope 9, 7
	;note E_, 0 | WARNING: Rounded down to 0
	volume_envelope 11, 7
	note A_, 2
	volume_envelope 9, 7
	;note A_, 0 | WARNING: Rounded down to 0
	volume_envelope 7, 7
	;note E_, 0 | WARNING: Rounded down to 0
	octave 5
	volume_envelope 11, 7
	note C_, 2
	volume_envelope 9, 7
	;note C_, 0 | WARNING: Rounded down to 0
	octave 4
	volume_envelope 7, 7
	;note A_, 0 | WARNING: Rounded down to 0
	volume_envelope 5, 7
	note E_, 2
	octave 5
	volume_envelope 7, 7
	;note C_, 0 | WARNING: Rounded down to 0
	octave 4
	volume_envelope 5, 7
	;note A_, 0 | WARNING: Rounded down to 0
	volume_envelope 4, 7
	note E_, 2
	octave 5
	volume_envelope 5, 7
	;note C_, 0 | WARNING: Rounded down to 0
	octave 4
	volume_envelope 4, 7
	note A_, 2
	octave 5
	;note C_, 0 | WARNING: Rounded down to 0
	octave 4
	volume_envelope 11, 7
	note B_, 2
	volume_envelope 9, 7
	note B_, 2
;Bar 21
	volume_envelope 7, 7
	;note B_, 0 | WARNING: Rounded down to 0
	volume_envelope 11, 7
	note A_, 2
	volume_envelope 9, 7
	;note A_, 0 | WARNING: Rounded down to 0
	volume_envelope 5, 7
	note B_, 2
	volume_envelope 7, 7
	;note A_, 0 | WARNING: Rounded down to 0
	volume_envelope 4, 7
	;note B_, 0 | WARNING: Rounded down to 0
	volume_envelope 11, 7
	note F_, 2
	volume_envelope 5, 7
	;note A_, 0 | WARNING: Rounded down to 0
	volume_envelope 9, 7
	note F_, 2
	volume_envelope 4, 7
	;note A_, 0 | WARNING: Rounded down to 0
	volume_envelope 7, 7
	note F_, 2
	volume_envelope 5, 7
	note F_, 2
	volume_envelope 4, 7
	note F_, 4
;Bar 22
	volume_envelope 11, 7
	note F#, 2
	volume_envelope 9, 7
	;note F#, 0 | WARNING: Rounded down to 0
	volume_envelope 11, 7
	note A_, 2
	volume_envelope 9, 7
	;note A_, 0 | WARNING: Rounded down to 0
	volume_envelope 7, 7
	;note F#, 0 | WARNING: Rounded down to 0
	volume_envelope 11, 7
	note E_, 2
	volume_envelope 9, 7
	;note E_, 0 | WARNING: Rounded down to 0
	volume_envelope 7, 7
	;note A_, 0 | WARNING: Rounded down to 0
	volume_envelope 5, 7
	note F#, 2
	volume_envelope 7, 7
	;note E_, 0 | WARNING: Rounded down to 0
	volume_envelope 5, 7
	;note A_, 0 | WARNING: Rounded down to 0
	volume_envelope 4, 7
	note F#, 2
	volume_envelope 5, 7
	;note E_, 0 | WARNING: Rounded down to 0
	volume_envelope 4, 7
	note A_, 2
	note E_, 8
;Bar 23
	volume_envelope 11, 7
	note D_, 2
	volume_envelope 9, 7
	note D_, 2
	volume_envelope 7, 7
	note D_, 2
	volume_envelope 5, 7
	note D_, 2
	volume_envelope 4, 7
	note D_, 4
;Bar 24
	volume_envelope 11, 7
	note E_, 2
	volume_envelope 9, 7
	;note E_, 0 | WARNING: Rounded down to 0
	volume_envelope 11, 7
	note F_, 2
	volume_envelope 9, 7
	;note F_, 0 | WARNING: Rounded down to 0
	volume_envelope 7, 7
	;note E_, 0 | WARNING: Rounded down to 0
	volume_envelope 11, 7
	note C_, 2
	volume_envelope 9, 7
	;note C_, 0 | WARNING: Rounded down to 0
	volume_envelope 7, 7
	;note F_, 0 | WARNING: Rounded down to 0
	volume_envelope 5, 7
	note E_, 2
	volume_envelope 7, 7
	;note C_, 0 | WARNING: Rounded down to 0
	volume_envelope 5, 7
	;note F_, 0 | WARNING: Rounded down to 0
	volume_envelope 4, 7
	note E_, 2
	volume_envelope 5, 7
	;note C_, 0 | WARNING: Rounded down to 0
	volume_envelope 4, 7
	note F_, 2
	note C_, 8
	sound_loop 0, Music_RMVXDungeon01_Ch1
	sound_ret
; ============================================================================================================

Music_RMVXDungeon01_Ch2:
	duty_cycle 1
	note_type 12, 10, 7
;Bar 1
	volume_envelope 4, 7
	rest 6
	rest 16
	rest 16
	rest 16
	rest 16
	rest 3
;Bar 5
	octave 3
	volume_envelope 10, 7
	note F_, 1
	rest 3
	note E_, 1
	rest 3
;Bar 6
	note C_, 1
	rest 3
	note D_, 12
;Bar 7
	rest 8
	note A_, 1
	rest 3
	note G_, 1
	rest 3
;Bar 8
	note D_, 1
	rest 3
	note E_, 5
	rest 3
	note C_, 6
;Bar 9
	rest 6
	note F_, 1
	rest 3
	note E_, 1
	rest 3
;Bar 10
	note C_, 1
	rest 3
	note D_, 12
;Bar 11
	rest 8
	note A_, 1
	rest 3
	note G_, 1
	rest 3
;Bar 12
	note D_, 1
	rest 3
	note E_, 5
	rest 3
	note F_, 1
	rest 3
;Bar 13
	note G_, 1
	rest 3
	note A_, 8
	rest 4
;Bar 14
	note G_, 2
	octave 4
	note C_, 2
	octave 3
	note E_, 5
	rest 3
	note F_, 1
	rest 3
;Bar 15
	note G_, 1
	rest 3
	note A_, 8
	rest 4
;Bar 16
	note G_, 2
	note F_, 2
	note E_, 5
	rest 3
	note D_, 1
	rest 3
;Bar 17
	note C_, 1
	rest 3
	note A_, 8
	rest 4
;Bar 18
	note G_, 2
	octave 4
	note C_, 2
	octave 3
	note E_, 5
	rest 3
	note F_, 1
	rest 3
;Bar 19
	note G_, 1
	rest 3
	note A_, 8
	rest 4
;Bar 20
	note G_, 2
	octave 4
	note C_, 2
	note E_, 5
	rest 3
	note D_, 1
	rest 3
;Bar 21
	note C_, 1
	rest 3
	octave 3
	note A_, 12
;Bar 22
	note A#, 2
	octave 4
	note C_, 2
	octave 3
	note G_, 16
;Bar 23
	note F_, 12
;Bar 24
	note G_, 2
	note A_, 2
	note E_, 8
	sound_loop 0, Music_RMVXDungeon01_Ch2
	sound_ret

; ============================================================================================================

Music_RMVXDungeon01_Ch3:
	note_type 12, 1, 0
;Bar 1
	volume_envelope 2, 0
	rest 2
	rest 2
	octave 3
	note E_, 1
	note F_, 1
	note F#, 1
	octave 4
	note D_, 13
;Bar 2
	octave 3
	note C_, 1
	note E_, 1
	note F#, 1
	octave 4
	note C_, 13
;Bar 3
	octave 3
	note E_, 1
	note F_, 1
	note F#, 1
	octave 4
	note D_, 13
;Bar 4
	octave 3
	note C_, 1
	note E_, 1
	note F#, 1
	octave 4
	note C_, 13
;Bar 5
	octave 3
	note E_, 1
	note F_, 1
	note F#, 1
	octave 4
	note D_, 13
;Bar 6
	octave 3
	note C_, 1
	note E_, 1
	note F#, 1
	octave 4
	note C_, 13
;Bar 7
	octave 3
	note E_, 1
	note F_, 1
	note F#, 1
	octave 4
	note D_, 13
;Bar 8
	octave 3
	note C_, 1
	note E_, 1
	note F#, 1
	octave 4
	note C_, 13
;Bar 9
	octave 3
	note E_, 1
	note F_, 1
	note F#, 1
	octave 4
	note D_, 13
;Bar 10
	octave 3
	note C_, 1
	note E_, 1
	note F#, 1
	octave 4
	note C_, 13
;Bar 11
	octave 3
	note E_, 1
	note F_, 1
	note F#, 1
	octave 4
	note D_, 13
;Bar 12
	octave 3
	note C_, 1
	note E_, 1
	note F#, 1
	octave 4
	note C_, 13
;Bar 13
	octave 3
	note E_, 1
	note F_, 1
	note F#, 1
	octave 4
	note D_, 13
;Bar 14
	octave 3
	note C_, 1
	note E_, 1
	note F#, 1
	octave 4
	note C_, 13
;Bar 15
	octave 3
	note E_, 1
	note F_, 1
	note F#, 1
	octave 4
	note D_, 13
;Bar 16
	octave 3
	note C_, 1
	note E_, 1
	note F#, 1
	octave 4
	note C_, 13
;Bar 17
	octave 3
	note E_, 1
	note F_, 1
	note F#, 1
	octave 4
	note D_, 13
;Bar 18
	octave 3
	note C_, 1
	note E_, 1
	note F#, 1
	octave 4
	note C_, 13
;Bar 19
	octave 3
	note E_, 1
	note F_, 1
	note F#, 1
	octave 4
	note D_, 13
;Bar 20
	octave 3
	note C_, 1
	note E_, 1
	note F#, 1
	octave 4
	note C_, 13
;Bar 21
	octave 3
	note E_, 1
	note F_, 1
	note F#, 1
	octave 4
	note D_, 13
;Bar 22
	octave 3
	note C_, 1
	note E_, 1
	note F#, 1
	octave 4
	note C_, 13
;Bar 23
	octave 3
	note E_, 1
	note F_, 1
	note F#, 1
	octave 4
	note D_, 13
;Bar 24
	octave 3
	note C_, 1
	note E_, 1
	note F#, 1
	octave 4
	note C_, 13
	sound_loop 0, Music_RMVXDungeon01_Ch3
	sound_ret

; ============================================================================================================

Music_RMVXDungeon01_Ch4:
	toggle_noise 1
	drum_speed 12
;Bar 1
	rest 4
	;note G_, 0 | WARNING: Rounded down to 0
	;note A_, 0 | WARNING: Rounded down to 0
	;note A#, 0 | WARNING: Rounded down to 0
	drum_note 6, 16
;Bar 2
	;note E_, 0 | WARNING: Rounded down to 0
	;note G_, 0 | WARNING: Rounded down to 0
	;note A#, 0 | WARNING: Rounded down to 0
	drum_note 5, 16
;Bar 3
	;note G_, 0 | WARNING: Rounded down to 0
	;note A_, 0 | WARNING: Rounded down to 0
	;note A#, 0 | WARNING: Rounded down to 0
	drum_note 6, 16
;Bar 4
	;note E_, 0 | WARNING: Rounded down to 0
	;note G_, 0 | WARNING: Rounded down to 0
	;note A#, 0 | WARNING: Rounded down to 0
	drum_note 5, 16
;Bar 5
	;note G_, 0 | WARNING: Rounded down to 0
	;note A_, 0 | WARNING: Rounded down to 0
	;note A#, 0 | WARNING: Rounded down to 0
	drum_note 6, 16
;Bar 6
	;note E_, 0 | WARNING: Rounded down to 0
	;note G_, 0 | WARNING: Rounded down to 0
	;note A#, 0 | WARNING: Rounded down to 0
	drum_note 5, 16
;Bar 7
	;note G_, 0 | WARNING: Rounded down to 0
	;note A_, 0 | WARNING: Rounded down to 0
	;note A#, 0 | WARNING: Rounded down to 0
	drum_note 6, 16
;Bar 8
	;note E_, 0 | WARNING: Rounded down to 0
	;note G_, 0 | WARNING: Rounded down to 0
	;note A#, 0 | WARNING: Rounded down to 0
	drum_note 5, 16
;Bar 9
	;note G_, 0 | WARNING: Rounded down to 0
	;note A_, 0 | WARNING: Rounded down to 0
	;note A#, 0 | WARNING: Rounded down to 0
	drum_note 6, 16
;Bar 10
	;note E_, 0 | WARNING: Rounded down to 0
	;note G_, 0 | WARNING: Rounded down to 0
	;note A#, 0 | WARNING: Rounded down to 0
	drum_note 5, 16
;Bar 11
	;note G_, 0 | WARNING: Rounded down to 0
	;note A_, 0 | WARNING: Rounded down to 0
	;note A#, 0 | WARNING: Rounded down to 0
	drum_note 6, 16
;Bar 12
	;note E_, 0 | WARNING: Rounded down to 0
	;note G_, 0 | WARNING: Rounded down to 0
	;note A#, 0 | WARNING: Rounded down to 0
	drum_note 5, 16
;Bar 13
	;note G_, 0 | WARNING: Rounded down to 0
	;note A_, 0 | WARNING: Rounded down to 0
	;note A#, 0 | WARNING: Rounded down to 0
	drum_note 6, 16
;Bar 14
	;note E_, 0 | WARNING: Rounded down to 0
	;note G_, 0 | WARNING: Rounded down to 0
	;note A#, 0 | WARNING: Rounded down to 0
	drum_note 5, 16
;Bar 15
	;note G_, 0 | WARNING: Rounded down to 0
	;note A_, 0 | WARNING: Rounded down to 0
	;note A#, 0 | WARNING: Rounded down to 0
	drum_note 6, 16
;Bar 16
	;note E_, 0 | WARNING: Rounded down to 0
	;note G_, 0 | WARNING: Rounded down to 0
	;note A#, 0 | WARNING: Rounded down to 0
	drum_note 5, 16
;Bar 17
	;note G_, 0 | WARNING: Rounded down to 0
	;note A_, 0 | WARNING: Rounded down to 0
	;note A#, 0 | WARNING: Rounded down to 0
	drum_note 6, 16
;Bar 18
	;note E_, 0 | WARNING: Rounded down to 0
	;note G_, 0 | WARNING: Rounded down to 0
	;note A#, 0 | WARNING: Rounded down to 0
	drum_note 5, 16
;Bar 19
	;note G_, 0 | WARNING: Rounded down to 0
	;note A_, 0 | WARNING: Rounded down to 0
	;note A#, 0 | WARNING: Rounded down to 0
	drum_note 6, 16
;Bar 20
	;note E_, 0 | WARNING: Rounded down to 0
	;note G_, 0 | WARNING: Rounded down to 0
	;note A#, 0 | WARNING: Rounded down to 0
	drum_note 5, 16
;Bar 21
	;note G_, 0 | WARNING: Rounded down to 0
	;note A_, 0 | WARNING: Rounded down to 0
	;note A#, 0 | WARNING: Rounded down to 0
	drum_note 6, 16
;Bar 22
	;note E_, 0 | WARNING: Rounded down to 0
	;note G_, 0 | WARNING: Rounded down to 0
	;note A#, 0 | WARNING: Rounded down to 0
	drum_note 5, 16
;Bar 23
	;note G_, 0 | WARNING: Rounded down to 0
	;note A_, 0 | WARNING: Rounded down to 0
	;note A#, 0 | WARNING: Rounded down to 0
	drum_note 6, 16
;Bar 24
	;note E_, 0 | WARNING: Rounded down to 0
	;note G_, 0 | WARNING: Rounded down to 0
	;note A#, 0 | WARNING: Rounded down to 0
	drum_note 5, 15
	sound_loop 0, Music_RMVXDungeon01_Ch4
	sound_ret

; ============================================================================================================

